<?xml version="1.0" encoding="UTF-8" standalone="no"?><svg xmlns="http://www.w3.org/2000/svg" xmlns:xlink="http://www.w3.org/1999/xlink" clip-rule="evenodd" stroke-miterlimit="4.00" viewBox="0 0 1920 1080"><desc>SVG generated by Keynote</desc><defs></defs><g transform="matrix(1.00, 0.00, -0.00, -1.00, 0.0, 1080.0)"><path d="M 0.0 1080.0 L 1920.0 1080.0 L 1920.0 0.0 L 0.0 0.0 Z M 0.0 1080.0 " fill="#D18877"></path><text xml:space="preserve" font-family="Helvetica-Light" font-size="194.0" fill="#FFFFFF" transform="matrix(1.00, 0.00, -0.00, -1.00, 149.0, 468.0)">&lt;</text><text xml:space="preserve" font-family="Helvetica-Light" font-size="194.0" fill="#FFFFFF" transform="matrix(1.00, 0.00, -0.00, -1.00, 277.0, 468.0)">m</text><text xml:space="preserve" font-family="Helvetica-Light" font-size="194.0" fill="#FFFFFF" transform="matrix(1.00, 0.00, -0.00, -1.00, 438.6, 468.0)">e</text><text xml:space="preserve" font-family="Helvetica-Light" font-size="194.0" fill="#FFFFFF" transform="matrix(1.00, 0.00, -0.00, -1.00, 546.5, 468.0)">t</text><text xml:space="preserve" font-family="Helvetica-Light" font-size="194.0" fill="#FFFFFF" transform="matrix(1.00, 0.00, -0.00, -1.00, 600.4, 468.0)">a</text><text xml:space="preserve" font-family="Helvetica-Light" font-size="194.0" fill="#FFFFFF" transform="matrix(1.00, 0.00, -0.00, -1.00, 708.3, 468.0)">&gt;</text><text xml:space="preserve" font-family="Helvetica-Light" font-size="194.0" fill="#FFFFFF" transform="matrix(1.00, 0.00, -0.00, -1.00, 836.3, 468.0)">…</text><text xml:space="preserve" font-family="Helvetica-Light" font-size="194.0" fill="#FFFFFF" transform="matrix(1.00, 0.00, -0.00, -1.00, 1030.3, 468.0)">&lt;</text><text xml:space="preserve" font-family="Helvetica-Light" font-size="194.0" fill="#FFFFFF" transform="matrix(1.00, 0.00, -0.00, -1.00, 1158.4, 468.0)">/</text><text xml:space="preserve" font-family="Helvetica-Light" font-size="194.0" fill="#FFFFFF" transform="matrix(1.00, 0.00, -0.00, -1.00, 1212.3, 468.0)">m</text><text xml:space="preserve" font-family="Helvetica-Light" font-size="194.0" fill="#FFFFFF" transform="matrix(1.00, 0.00, -0.00, -1.00, 1373.9, 468.0)">e</text><text xml:space="preserve" font-family="Helvetica-Light" font-size="194.0" fill="#FFFFFF" transform="matrix(1.00, 0.00, -0.00, -1.00, 1481.8, 468.0)">t</text><text xml:space="preserve" font-family="Helvetica-Light" font-size="194.0" fill="#FFFFFF" transform="matrix(1.00, 0.00, -0.00, -1.00, 1535.7, 468.0)">a</text><text xml:space="preserve" font-family="Helvetica-Light" font-size="194.0" fill="#FFFFFF" transform="matrix(1.00, 0.00, -0.00, -1.00, 1643.6, 468.0)">&gt;</text></g></svg>