<?xml version="1.0" encoding="UTF-8" standalone="no"?><svg xmlns="http://www.w3.org/2000/svg" xmlns:xlink="http://www.w3.org/1999/xlink" clip-rule="evenodd" stroke-miterlimit="4.00" viewBox="0 0 1920 1080"><desc>SVG generated by Keynote</desc><defs></defs><g transform="matrix(1.00, 0.00, -0.00, -1.00, 0.0, 1080.0)"><path d="M 0.0 1080.0 L 1920.0 1080.0 L 1920.0 0.0 L 0.0 0.0 Z M 0.0 1080.0 " fill="#3F8BD0"></path><text xml:space="preserve" font-family="Helvetica-Light" font-size="194.0" fill="#FFFFFF" transform="matrix(1.00, 0.00, -0.00, -1.00, 213.0, 468.0)">&lt;</text><text xml:space="preserve" font-family="Helvetica-Light" font-size="194.0" fill="#FFFFFF" transform="matrix(1.00, 0.00, -0.00, -1.00, 341.0, 468.0)">h</text><text xml:space="preserve" font-family="Helvetica-Light" font-size="194.0" fill="#FFFFFF" transform="matrix(1.00, 0.00, -0.00, -1.00, 448.9, 468.0)">t</text><text xml:space="preserve" font-family="Helvetica-Light" font-size="194.0" fill="#FFFFFF" transform="matrix(1.00, 0.00, -0.00, -1.00, 502.8, 468.0)">m</text><text xml:space="preserve" font-family="Helvetica-Light" font-size="194.0" fill="#FFFFFF" transform="matrix(1.00, 0.00, -0.00, -1.00, 664.4, 468.0)">l</text><text xml:space="preserve" font-family="Helvetica-Light" font-size="194.0" fill="#FFFFFF" transform="matrix(1.00, 0.00, -0.00, -1.00, 707.5, 468.0)">&gt;</text><text xml:space="preserve" font-family="Helvetica-Light" font-size="194.0" fill="#FFFFFF" transform="matrix(1.00, 0.00, -0.00, -1.00, 835.5, 468.0)">…</text><text xml:space="preserve" font-family="Helvetica-Light" font-size="194.0" fill="#FFFFFF" transform="matrix(1.00, 0.00, -0.00, -1.00, 1029.5, 468.0)">&lt;</text><text xml:space="preserve" font-family="Helvetica-Light" font-size="194.0" fill="#FFFFFF" transform="matrix(1.00, 0.00, -0.00, -1.00, 1157.6, 468.0)">/</text><text xml:space="preserve" font-family="Helvetica-Light" font-size="194.0" fill="#FFFFFF" transform="matrix(1.00, 0.00, -0.00, -1.00, 1211.5, 468.0)">h</text><text xml:space="preserve" font-family="Helvetica-Light" font-size="194.0" fill="#FFFFFF" transform="matrix(1.00, 0.00, -0.00, -1.00, 1319.4, 468.0)">t</text><text xml:space="preserve" font-family="Helvetica-Light" font-size="194.0" fill="#FFFFFF" transform="matrix(1.00, 0.00, -0.00, -1.00, 1373.3, 468.0)">m</text><text xml:space="preserve" font-family="Helvetica-Light" font-size="194.0" fill="#FFFFFF" transform="matrix(1.00, 0.00, -0.00, -1.00, 1534.9, 468.0)">l</text><text xml:space="preserve" font-family="Helvetica-Light" font-size="194.0" fill="#FFFFFF" transform="matrix(1.00, 0.00, -0.00, -1.00, 1578.0, 468.0)">&gt;</text></g></svg>